<svg width="193" height="30" viewBox="0 0 193 30" fill="none" xmlns="http://www.w3.org/2000/svg">
<path d="M2.9657 2.59715L3.05769 1.71403L3.92133 1.60364L6.41052 3.37313L6.17892 4.56361L4.86831 4.97487L2.9657 2.59715Z" fill="#00D26A"/>
<path d="M6.54493 7.07017L4.86851 4.97492L6.40964 3.37318L8.6023 4.93272L7.9681 6.29528L6.54493 7.07017Z" fill="#468CFB"/>
<path d="M3.93427 1.61232L2.97539 2.60799L1.31304 0.530059C1.07819 0.236767 1.44832 -0.15501 1.7546 0.0636061L3.93427 1.61232Z" fill="#F9C23C"/>
<path d="M8.54592 4.89265L11.4204 6.93704C12.5925 9.80177 10.2689 10.2325 8.96151 10.0897L6.50154 7.01604L8.54701 4.89265H8.54592Z" fill="#8D65C5"/>
<path d="M9.56982 4.87109C10.8891 3.13623 16.7755 2.13406 13.4746 5.33754C11.5157 7.24231 12.3339 9.2683 9.82306 10.3506C5.59577 11.9566 4.36199 8.49015 4.80139 8.05076C5.24079 7.61136 6.22672 8.55184 7.42262 8.05076C8.16505 7.73907 8.25054 6.60594 9.56982 4.87109Z" fill="#5092FF"/>
<path d="M3.38353 22.8029L12.7126 20.7682C12.8738 20.7293 13.0362 20.6849 13.1996 20.6351C9.34677 25.0518 8.86408 29.9826 8.86408 29.9826H25.4551C27.7711 29.9826 29.5893 27.7293 29.3729 25.4133C28.7257 18.5745 26.3588 5.98569 17.6531 5.90019C15.9139 4.57551 13.9009 4.25516 12.6899 5.46513C8.99179 9.16428 5.51882 13.015 3.17249 15.6167C2.44305 16.4262 1.82291 17.1145 1.33806 17.6405C-0.707402 19.8581 -0.231209 21.6773 1.57616 22.5973C2.12811 22.8786 2.77747 22.9328 3.38353 22.8029Z" fill="#EFD5FF"/>
<path d="M29.4896 15.8971C29.4896 11.9393 26.9756 11.3419 26.0069 11.3646C26.2201 12.2218 26.31 14.9361 24.9572 18.9404C23.6043 22.9448 24.7212 28.1061 25.4669 30C28.3576 30 29.4907 29.6277 29.4907 27.5314V15.8971H29.4896Z" fill="#FF6DC6"/>
<path d="M26.7505 16.2347C27.901 11.9057 24.7213 7.40782 22.218 7.40782C23.0979 9.41433 23.639 14.1384 22.218 16.4382C20.6001 19.0583 20.3414 26.212 21.1531 29.9999H26.2938C24.454 24.778 25.6012 20.5637 26.7505 16.2347Z" fill="#C790F1"/>
<path d="M13.2559 20.5637C21.6098 13.6308 17.2126 7.61125 11.7007 6.4619C19.4788 0.541952 21.2938 12.3234 19.9193 16.3364C17.5849 18.8397 13.2559 20.5637 13.2559 20.5637Z" fill="#BCA4EB"/>
<path d="M21.796 29.9826H14.6261C12.9053 22.6665 18.7343 17.7942 19.1239 12.3396C19.5568 6.13831 15.0763 4.99112 15.0763 4.99112C13.6477 5.34826 16.1694 6.34394 13.3663 6.34394L12.6304 4.77467L11.8869 3.55172C13.6618 3.0647 16.0449 2.65669 18.7689 3.99219C22.1239 5.63506 24.9952 9.93162 23.8426 14.3407C22.6921 18.7379 19.9692 21.9079 21.796 29.9826Z" fill="#5092FF"/>
<path d="M21.7958 29.9826H20.2666C19.9073 28.9004 19.6086 27.1601 19.6486 25.1298C19.7092 21.9934 20.3867 20.2542 21.9831 16.1514L22.4896 14.8483C24.0588 10.7899 21.7222 6.73141 20.6627 5.37859L20.8413 5.40456C23.1768 7.49765 24.7461 10.8851 23.8424 14.3408C23.5642 15.4025 23.1952 16.3927 22.8197 17.397C21.6422 20.5551 20.4106 23.8581 21.7958 29.9837V29.9826ZM26.7504 16.2347C27.324 14.0778 26.8218 11.8786 25.863 10.2152H25.8034C25.8576 10.5204 25.9279 10.844 26.0026 11.1838C26.3316 12.6881 26.7298 14.5063 26.0405 16.4382L26.0361 16.449C25.1443 18.9468 23.3694 23.9166 23.8078 26.7196C24.0404 28.2023 24.482 29.4036 24.7461 29.9999H26.2937C24.469 24.8213 25.5816 20.6341 26.7223 16.3418L26.7504 16.2347Z" fill="#8D65C5"/>
<path d="M13.9833 7.28978C11.9703 7.56034 11.4032 6.52787 11.2777 4.63392C11.1532 2.73997 11.1835 2.18802 11.1835 2.18802C11.1835 1.82005 11.6272 1.63607 11.887 1.89581C11.887 1.89581 15.4368 4.7021 15.5894 5.71618C15.742 6.73133 14.821 7.17722 13.9833 7.28978Z" fill="#EFD5FF"/>
<path d="M10.1108 10.5193C9.82374 10.5193 9.54846 10.6334 9.3455 10.8363C9.14254 11.0393 9.02851 11.3146 9.02851 11.6016V12.6838C9.02851 12.9709 9.14254 13.2462 9.3455 13.4491C9.54846 13.6521 9.82374 13.7661 10.1108 13.7661C10.3978 13.7661 10.6731 13.6521 10.876 13.4491C11.079 13.2462 11.193 12.9709 11.193 12.6838V11.6016C11.193 11.3146 11.079 11.0393 10.876 10.8363C10.6731 10.6334 10.3978 10.5193 10.1108 10.5193ZM2.43757 19.5031C2.11289 19.8278 1.57176 19.8278 1.24708 19.5031L2.43757 18.3127C2.76224 18.6482 2.76224 19.1785 2.43757 19.5031ZM6.52525 22.1179L4.50792 22.5573C4.92364 22.3944 5.27051 22.0932 5.49011 21.7045C5.70971 21.3157 5.78863 20.8632 5.71356 20.4231C5.6972 20.3498 5.69591 20.2739 5.70975 20.2002C5.7236 20.1264 5.7523 20.0561 5.79411 19.9938C5.83592 19.9314 5.88997 19.8782 5.95298 19.8374C6.01598 19.7965 6.08663 19.7689 6.16063 19.7562C6.23463 19.7435 6.31045 19.746 6.38346 19.7635C6.45648 19.781 6.52518 19.8131 6.58539 19.858C6.64561 19.9028 6.69607 19.9595 6.73373 20.0244C6.77139 20.0894 6.79546 20.1613 6.80447 20.2358C6.91919 20.9014 6.80772 21.5562 6.52525 22.1179Z" fill="#1C1C1C"/>
<path d="M50.2634 14.0829V25.2248H46.5154V23.7073C46.1354 24.1998 45.6167 24.5991 44.9592 24.9053C44.3162 25.1982 43.6002 25.3446 42.8112 25.3446C41.876 25.3446 41.0504 25.1582 40.3344 24.7855C39.6184 24.3995 39.0631 23.847 38.6686 23.1282C38.2741 22.4094 38.0768 21.5641 38.0768 20.5923V14.0829H41.8029V20.1331C41.8029 20.8785 42.0148 21.4576 42.4385 21.8702C42.8623 22.2829 43.4322 22.4892 44.1482 22.4892C44.8788 22.4892 45.456 22.2829 45.8797 21.8702C46.3035 21.4576 46.5154 20.8785 46.5154 20.1331V14.0829H50.2634Z" fill="white"/>
<path d="M60.4079 13.9631C61.8399 13.9631 62.9796 14.389 63.8271 15.241C64.6892 16.0796 65.1203 17.2378 65.1203 18.7154V25.2248H61.3942V19.1746C61.3942 18.4292 61.1823 17.8501 60.7585 17.4374C60.3348 17.0248 59.7649 16.8184 59.0489 16.8184C58.3329 16.8184 57.763 17.0248 57.3393 17.4374C56.9155 17.8501 56.7036 18.4292 56.7036 19.1746V25.2248H52.9556V14.0829H56.7036V15.5605C57.0836 15.0679 57.595 14.6819 58.2379 14.4024C58.8809 14.1095 59.6042 13.9631 60.4079 13.9631Z" fill="white"/>
<path d="M69.6098 12.9248C68.9523 12.9248 68.4116 12.7517 67.9878 12.4056C67.5787 12.0462 67.3741 11.6069 67.3741 11.0877C67.3741 10.5553 67.5787 10.116 67.9878 9.76987C68.4116 9.41045 68.9523 9.23074 69.6098 9.23074C70.2527 9.23074 70.7788 9.41045 71.1879 9.76987C71.6117 10.116 71.8236 10.5553 71.8236 11.0877C71.8236 11.6069 71.6117 12.0462 71.1879 12.4056C70.7788 12.7517 70.2527 12.9248 69.6098 12.9248ZM71.4729 14.0829V25.2248H67.7248V14.0829H71.4729Z" fill="white"/>
<path d="M73.4438 19.6538C73.4438 18.4957 73.6995 17.484 74.211 16.6188C74.737 15.7535 75.4603 15.0879 76.3809 14.622C77.3161 14.1561 78.3828 13.9231 79.581 13.9231C81.1152 13.9231 82.3938 14.2892 83.4167 15.0213C84.4541 15.7535 85.1336 16.7852 85.4551 18.1163H81.4659C81.1299 17.2644 80.4796 16.8384 79.5152 16.8384C78.8284 16.8384 78.2805 17.0847 77.8713 17.5772C77.4622 18.0564 77.2576 18.7486 77.2576 19.6538C77.2576 20.559 77.4622 21.2579 77.8713 21.7504C78.2805 22.2297 78.8284 22.4693 79.5152 22.4693C80.4796 22.4693 81.1299 22.0433 81.4659 21.1913H85.4551C85.1336 22.4959 84.4541 23.5209 83.4167 24.2663C82.3792 25.0118 81.1006 25.3845 79.581 25.3845C78.3828 25.3845 77.3161 25.1516 76.3809 24.6857C75.4603 24.2198 74.737 23.5542 74.211 22.6889C73.6995 21.8236 73.4438 20.812 73.4438 19.6538Z" fill="white"/>
<path d="M93.0272 25.3845C91.829 25.3845 90.7477 25.1516 89.7833 24.6857C88.8335 24.2198 88.0809 23.5542 87.5257 22.6889C86.985 21.8236 86.7147 20.812 86.7147 19.6538C86.7147 18.509 86.9923 17.504 87.5476 16.6387C88.1029 15.7601 88.8627 15.0879 89.8271 14.622C90.7915 14.1561 91.8728 13.9231 93.071 13.9231C94.2692 13.9231 95.3505 14.1561 96.3149 14.622C97.2794 15.0879 98.0392 15.7601 98.5945 16.6387C99.1497 17.504 99.4274 18.509 99.4274 19.6538C99.4274 20.7986 99.1424 21.8103 98.5725 22.6889C98.0173 23.5542 97.2501 24.2198 96.2711 24.6857C95.3067 25.1516 94.2254 25.3845 93.0272 25.3845ZM93.0272 22.4293C93.7432 22.4293 94.3496 22.1897 94.8464 21.7105C95.3578 21.2313 95.6136 20.5457 95.6136 19.6538C95.6136 18.7619 95.3652 18.0764 94.8683 17.5972C94.3861 17.1179 93.787 16.8783 93.071 16.8783C92.3404 16.8783 91.734 17.1179 91.2518 17.5972C90.7696 18.0631 90.5285 18.7486 90.5285 19.6538C90.5285 20.5457 90.7623 21.2313 91.2299 21.7105C91.7121 22.1897 92.3112 22.4293 93.0272 22.4293Z" fill="white"/>
<path d="M105.164 15.9399C105.602 15.3275 106.15 14.8483 106.808 14.5022C107.465 14.1428 108.196 13.9631 109 13.9631V17.5772H107.969C107.034 17.5772 106.333 17.7636 105.865 18.1363C105.398 18.4957 105.164 19.1347 105.164 20.0532V25.2248H101.416V14.0829H105.164V15.9399Z" fill="white"/>
<path d="M118.243 13.9631C119.675 13.9631 120.815 14.389 121.663 15.241C122.525 16.0796 122.956 17.2378 122.956 18.7154V25.2248H119.23V19.1746C119.23 18.4292 119.018 17.8501 118.594 17.4374C118.17 17.0248 117.6 16.8184 116.884 16.8184C116.168 16.8184 115.598 17.0248 115.175 17.4374C114.751 17.8501 114.539 18.4292 114.539 19.1746V25.2248H110.791V14.0829H114.539V15.5605C114.919 15.0679 115.43 14.6819 116.073 14.4024C116.716 14.1095 117.44 13.9631 118.243 13.9631Z" fill="white"/>
<path d="M127.445 12.9248C126.788 12.9248 126.247 12.7517 125.823 12.4056C125.414 12.0462 125.21 11.6069 125.21 11.0877C125.21 10.5553 125.414 10.116 125.823 9.76987C126.247 9.41045 126.788 9.23074 127.445 9.23074C128.088 9.23074 128.614 9.41045 129.023 9.76987C129.447 10.116 129.659 10.5553 129.659 11.0877C129.659 11.6069 129.447 12.0462 129.023 12.4056C128.614 12.7517 128.088 12.9248 127.445 12.9248ZM129.308 14.0829V25.2248H125.56V14.0829H129.308Z" fill="white"/>
<path d="M137.592 25.3845C136.394 25.3845 135.312 25.1516 134.348 24.6857C133.398 24.2198 132.645 23.5542 132.09 22.6889C131.55 21.8236 131.279 20.812 131.279 19.6538C131.279 18.509 131.557 17.504 132.112 16.6387C132.667 15.7601 133.427 15.0879 134.392 14.622C135.356 14.1561 136.437 13.9231 137.636 13.9231C138.834 13.9231 139.915 14.1561 140.879 14.622C141.844 15.0879 142.604 15.7601 143.159 16.6387C143.714 17.504 143.992 18.509 143.992 19.6538C143.992 20.7986 143.707 21.8103 143.137 22.6889C142.582 23.5542 141.815 24.2198 140.836 24.6857C139.871 25.1516 138.79 25.3845 137.592 25.3845ZM137.592 22.4293C138.308 22.4293 138.914 22.1897 139.411 21.7105C139.922 21.2313 140.178 20.5457 140.178 19.6538C140.178 18.7619 139.93 18.0764 139.433 17.5972C138.951 17.1179 138.352 16.8783 137.636 16.8783C136.905 16.8783 136.299 17.1179 135.816 17.5972C135.334 18.0631 135.093 18.7486 135.093 19.6538C135.093 20.5457 135.327 21.2313 135.794 21.7105C136.277 22.1897 136.876 22.4293 137.592 22.4293Z" fill="white"/>
<path d="M147.734 25.3845C147.076 25.3845 146.536 25.2115 146.112 24.8654C145.703 24.506 145.498 24.0667 145.498 23.5475C145.498 23.015 145.703 22.5691 146.112 22.2097C146.536 21.8503 147.076 21.6706 147.734 21.6706C148.377 21.6706 148.903 21.8503 149.312 22.2097C149.736 22.5691 149.948 23.015 149.948 23.5475C149.948 24.0667 149.736 24.506 149.312 24.8654C148.903 25.2115 148.377 25.3845 147.734 25.3845Z" fill="white"/>
<path d="M151.421 19.6339C151.421 18.4891 151.655 17.484 152.122 16.6188C152.605 15.7535 153.255 15.0879 154.073 14.622C154.891 14.1561 155.805 13.9231 156.813 13.9231C157.617 13.9231 158.347 14.0762 159.005 14.3824C159.677 14.6886 160.203 15.1012 160.583 15.6204V10.4488H164.331V25.2248H160.583V23.6274C160.232 24.1599 159.728 24.5858 159.071 24.9053C158.428 25.2248 157.675 25.3845 156.813 25.3845C155.805 25.3845 154.891 25.1516 154.073 24.6857C153.255 24.2064 152.605 23.5342 152.122 22.6689C151.655 21.7904 151.421 20.7787 151.421 19.6339ZM160.583 19.6538C160.583 18.8019 160.32 18.1296 159.794 17.6371C159.282 17.1446 158.654 16.8983 157.909 16.8983C157.164 16.8983 156.528 17.1446 156.002 17.6371C155.491 18.1163 155.235 18.7819 155.235 19.6339C155.235 20.4858 155.491 21.1647 156.002 21.6706C156.528 22.1631 157.164 22.4094 157.909 22.4094C158.654 22.4094 159.282 22.1631 159.794 21.6706C160.32 21.178 160.583 20.5058 160.583 19.6538Z" fill="white"/>
<path d="M178.572 19.4741C178.572 19.7936 178.55 20.1264 178.506 20.4725H170.023C170.082 21.1647 170.323 21.6972 170.747 22.0699C171.185 22.4293 171.718 22.609 172.347 22.609C173.282 22.609 173.932 22.2496 174.297 21.5308H178.287C178.082 22.2629 177.709 22.9219 177.169 23.5076C176.643 24.0933 175.978 24.5525 175.174 24.8853C174.371 25.2181 173.472 25.3845 172.478 25.3845C171.28 25.3845 170.213 25.1516 169.278 24.6857C168.343 24.2198 167.612 23.5542 167.086 22.6889C166.56 21.8236 166.297 20.812 166.297 19.6538C166.297 18.4957 166.553 17.484 167.064 16.6188C167.59 15.7535 168.321 15.0879 169.256 14.622C170.191 14.1561 171.265 13.9231 172.478 13.9231C173.662 13.9231 174.714 14.1494 175.634 14.602C176.555 15.0546 177.271 15.7002 177.782 16.5389C178.309 17.3775 178.572 18.3559 178.572 19.4741ZM174.736 18.5756C174.736 17.9899 174.517 17.524 174.078 17.1778C173.64 16.8317 173.092 16.6587 172.434 16.6587C171.806 16.6587 171.273 16.8251 170.834 17.1579C170.411 17.4907 170.148 17.9632 170.045 18.5756H174.736Z" fill="white"/>
<path d="M186.05 22.03L188.702 14.0829H192.692L188.352 25.2248H183.727L179.387 14.0829H183.398L186.05 22.03Z" fill="white"/>
</svg>
