<svg width="24" height="24" viewBox="0 0 24 24" fill="none" xmlns="http://www.w3.org/2000/svg">
<path fill-rule="evenodd" clip-rule="evenodd" d="M12 2C9.59999 2 7.29999 2.9 5.49999 4.4C3.71177 6.02105 2.53662 8.20867 2.17235 10.5946C1.80808 12.9806 2.27694 15.4192 3.49999 17.5C4.64684 19.5676 6.48918 21.1619 8.69999 22C9.19999 22 9.39999 21.8 9.39999 21.5V19.5C6.59999 20.2 5.99999 18.4 5.99999 18.4C5.89999 17.8 5.49999 17.2 4.99999 16.9C3.99999 16.2 4.99999 16.2 4.99999 16.2C5.32042 16.2481 5.62435 16.3734 5.88565 16.565C6.14694 16.7566 6.35777 17.0089 6.49999 17.3C6.78822 17.7884 7.25396 18.1467 7.79999 18.3C8.05915 18.3946 8.33509 18.4345 8.61044 18.4173C8.8858 18.4001 9.15461 18.3261 9.39999 18.2C9.39999 17.6 9.69999 17.2 10.1 16.8C7.89999 16.5 5.49999 15.6 5.49999 11.8C5.49999 10.7 5.89999 9.8 6.49999 9C6.25078 8.10411 6.3215 7.14939 6.69999 6.3C6.69999 6.3 7.49999 6 9.39999 7.3C11 6.8 12.8 6.8 14.4 7.3C16.4 6 17.2 6.3 17.2 6.3C17.5 7.1 17.6 8.1 17.2 9C17.8569 9.74467 18.2134 10.7071 18.2 11.7C18.2 15.7 15.9 16.5 13.7 16.7C13.956 16.9618 14.1514 17.2766 14.2724 17.6222C14.3933 17.9678 14.4369 18.3357 14.4 18.7V21.5C14.4 21.8 14.6 22.1 15.1 22C17.3691 21.2279 19.2855 19.6664 20.5 17.6C21.7375 15.4983 22.2047 13.0314 21.8216 10.6227C21.4384 8.21404 20.2286 6.0139 18.4 4.4C16.6238 2.85785 14.3522 2.006 12 2Z" fill="#F8F8F2"/>
</svg>
