<svg width="24" height="24" viewBox="0 0 24 24" fill="none" xmlns="http://www.w3.org/2000/svg">
<path fill-rule="evenodd" clip-rule="evenodd" d="M12.5 8.80001V10.5C12.8516 9.95106 13.3419 9.50474 13.9214 9.20621C14.5009 8.90769 15.149 8.76756 15.8 8.80001C19.3 8.80001 20 11 20 13.8V19.5H16.8V14.5C16.8 13.2 16.6 11.7 14.7 11.7C12.8 11.7 12.5 13 12.5 14.3V19.5H9.30001V8.80001H12.5ZM7.20001 6.10001C7.20793 6.34845 7.15787 6.59532 7.05378 6.82104C6.94968 7.04677 6.79443 7.24513 6.60033 7.40041C6.40624 7.55569 6.17863 7.66361 5.93556 7.71562C5.69249 7.76762 5.44065 7.76227 5.20001 7.70001C4.98033 7.63488 4.77721 7.52332 4.60438 7.3729C4.43154 7.22247 4.29304 7.03668 4.19822 6.82809C4.10341 6.6195 4.0545 6.39298 4.05481 6.16385C4.05512 5.93473 4.10463 5.70834 4.20001 5.50001C4.31052 5.29413 4.46479 5.11496 4.65196 4.97508C4.83913 4.83521 5.05467 4.73803 5.28342 4.69037C5.51217 4.64271 5.74858 4.64574 5.97604 4.69923C6.2035 4.75272 6.41648 4.85539 6.60001 5.00001C6.90001 5.30001 7.10001 5.70001 7.10001 6.10001H7.20001Z" fill="#F8F8F2"/>
<path d="M7.2 8.80002H4V19.5H7.2V8.80002Z" fill="#F8F8F2"/>
</svg>
