<svg width="24" height="24" viewBox="0 0 24 24" fill="none" xmlns="http://www.w3.org/2000/svg">
<g clip-path="url(#clip0_64_144)">
<path d="M3.42857 0C1.5375 0 0 1.5375 0 3.42857V20.5714C0 22.4625 1.5375 24 3.42857 24H20.5714C22.4625 24 24 22.4625 24 20.5714V3.42857C24 1.5375 22.4625 0 20.5714 0H3.42857ZM15.7607 11.3732C16.8054 11.8714 17.5661 12.6321 17.9679 13.5643C18.525 14.8661 18.5786 16.9875 16.8857 18.675C15.5893 19.9661 14.0196 20.55 11.7911 20.5661H11.7804C9.27321 20.55 7.34464 19.7036 6.05357 18.0589C4.90179 16.5964 4.30714 14.5554 4.28571 12V11.9893C4.30714 9.43393 4.90179 7.39821 6.05357 5.93036C7.35 4.28571 9.27857 3.43929 11.7804 3.42321H11.7911C14.3036 3.43929 16.2536 4.28036 17.5875 5.91964C18.2464 6.72857 18.7286 7.70357 19.0339 8.83393L17.5929 9.21964C17.3411 8.29821 16.9554 7.51071 16.4464 6.88393C15.4071 5.60357 13.8375 4.95 11.7857 4.93393C9.75 4.95 8.20714 5.60357 7.20536 6.87321C6.26786 8.06786 5.78036 9.7875 5.76429 11.9893C5.78036 14.1911 6.26786 15.9161 7.20536 17.1054C8.20714 18.3804 9.74464 19.0339 11.7857 19.0446C13.6232 19.0286 14.8339 18.5946 15.8464 17.5821C16.9982 16.4304 16.9768 15.0161 16.6071 14.1536C16.3929 13.65 15.9964 13.2268 15.4661 12.9054C15.3375 13.8696 15.0429 14.6304 14.5821 15.2196C13.9714 15.9964 13.0982 16.4196 11.9893 16.4786C11.1482 16.5268 10.3393 16.3232 9.70714 15.9054C8.9625 15.4125 8.52857 14.6625 8.48036 13.7893C8.38929 12.0643 9.75536 10.8268 11.8821 10.7036C12.6375 10.6607 13.3446 10.6929 13.9982 10.8054C13.9125 10.275 13.7357 9.85714 13.4732 9.55179C13.1143 9.13393 12.5571 8.91964 11.8232 8.91429H11.8018C11.2125 8.91429 10.4089 9.08036 9.89464 9.85714L8.6625 9.01071C9.34821 7.97143 10.4625 7.39821 11.7964 7.39821H11.8286C14.0679 7.41429 15.3964 8.80714 15.5304 11.2446C15.6054 11.2768 15.6804 11.3089 15.7554 11.3464L15.7607 11.3732ZM11.9143 14.9893C12.825 14.9411 13.8643 14.5821 14.0411 12.375C13.5696 12.2732 13.0446 12.2196 12.4875 12.2196C12.3161 12.2196 12.1446 12.225 11.9732 12.2357C10.4411 12.3214 9.93214 13.0661 9.96964 13.7304C10.0179 14.625 10.9875 15.0429 11.9196 14.9946L11.9143 14.9893Z" fill="#F8F8F2"/>
</g>
<defs>
<clipPath id="clip0_64_144">
<rect width="24" height="24" fill="white"/>
</clipPath>
</defs>
</svg>
