<svg width="24" height="24" viewBox="0 0 24 24" fill="none" xmlns="http://www.w3.org/2000/svg">
<g clip-path="url(#clip0_64_139)">
<path d="M3.42857 0C1.5375 0 0 1.5375 0 3.42857V20.5714C0 22.4625 1.5375 24 3.42857 24H20.5714C22.4625 24 24 22.4625 24 20.5714V3.42857C24 1.5375 22.4625 0 20.5714 0H3.42857ZM19.3446 4.5L13.7839 10.8536L20.325 19.5H15.2036L11.1964 14.2554L6.60536 19.5H4.06071L10.0071 12.7018L3.73393 4.5H8.98393L12.6107 9.29464L16.8 4.5H19.3446ZM17.3196 17.9786L8.21786 5.94107H6.70179L15.9054 17.9786H17.3143H17.3196Z" fill="#F8F8F2"/>
</g>
<defs>
<clipPath id="clip0_64_139">
<rect width="24" height="24" fill="white"/>
</clipPath>
</defs>
</svg>
