<svg width="32" height="23" viewBox="0 0 32 23" fill="none" xmlns="http://www.w3.org/2000/svg">
<path d="M12.8 16L21.104 11.2L12.8 6.4V16ZM31.296 3.472C31.504 4.224 31.648 5.232 31.744 6.512C31.856 7.792 31.904 8.896 31.904 9.856L32 11.2C32 14.704 31.744 17.28 31.296 18.928C30.896 20.368 29.968 21.296 28.528 21.696C27.776 21.904 26.4 22.048 24.288 22.144C22.208 22.256 20.304 22.304 18.544 22.304L16 22.4C9.296 22.4 5.12 22.144 3.472 21.696C2.032 21.296 1.104 20.368 0.704 18.928C0.496 18.176 0.352 17.168 0.256 15.888C0.144 14.608 0.0959999 13.504 0.0959999 12.544L0 11.2C0 7.696 0.256 5.12 0.704 3.472C1.104 2.032 2.032 1.104 3.472 0.704C4.224 0.496 5.6 0.352 7.712 0.256C9.792 0.144 11.696 0.0959999 13.456 0.0959999L16 0C22.704 0 26.88 0.256 28.528 0.704C29.968 1.104 30.896 2.032 31.296 3.472Z" fill="#F8F8F2"/>
</svg>
