<svg width="32" height="32" viewBox="0 0 32 32" fill="none" xmlns="http://www.w3.org/2000/svg">
<rect width="32" height="32" fill="#191919"/>
<mask id="mask0_22_16063" style="mask-type:alpha" maskUnits="userSpaceOnUse" x="9" y="5" width="17" height="23">
<path d="M9.05298 5.14125L25.7723 21.7L19.353 22.9814L15.38 27.7L9.05298 5.14125Z" fill="#D9D9D9"/>
</mask>
<g mask="url(#mask0_22_16063)">
<path d="M7 4.28442H26.6V7.52112H7V4.28442Z" fill="#FFFAAD"/>
<path d="M7 7.92112H26.6V11.1578H7V7.92112Z" fill="#FFB890"/>
<path d="M7 11.5578H26.6V14.6147H7V11.5578Z" fill="#FF9580"/>
<path d="M7 15.0147H26.6V18.0716H7V15.0147Z" fill="#F975E0"/>
<path d="M7 18.4716H26.6V21.5285H7V18.4716Z" fill="#FB36DB"/>
<path d="M7 21.9285H26.6V25.345H7V21.9285Z" fill="#BB4BFF"/>
<path d="M7 25.745H26.6V28.9817H7V25.745Z" fill="#33FFD3"/>
</g>
<path fill-rule="evenodd" clip-rule="evenodd" d="M8.06055 3.45471L26.792 22.0063L19.6225 23.4374L15.1537 28.745L8.06055 3.45471ZM19.3529 22.9813L25.7722 21.7L9.05285 5.1412L15.3799 27.7L19.3529 22.9813Z" fill="#F8F8F2"/>
</svg>
