<svg width="16" height="16" viewBox="0 0 16 16" fill="none" xmlns="http://www.w3.org/2000/svg">
<path d="M1.58173 1.38516L1.63079 0.91416L2.0914 0.855286L3.41897 1.79901L3.29544 2.43394L2.59645 2.65328L1.58173 1.38516Z" fill="#00D26A"/>
<path d="M3.49065 3.77077L2.59656 2.6533L3.4185 1.79904L4.58791 2.63079L4.24967 3.35749L3.49065 3.77077V3.77077Z" fill="#468CFB"/>
<path d="M2.09825 0.859902L1.58685 1.39093L0.700261 0.282698C0.575008 0.126276 0.772411 -0.0826719 0.93576 0.0339233L2.09825 0.859902Z" fill="#F9C23C"/>
<path d="M4.55781 2.60941L6.09086 3.69974C6.71597 5.2276 5.47671 5.45733 4.77945 5.38114L3.46747 3.74188L4.55838 2.60941H4.55781Z" fill="#8D65C5"/>
<path d="M5.10389 2.59793C5.8075 1.67267 8.94691 1.13818 7.18644 2.84671C6.1417 3.86258 6.57807 4.94311 5.23895 5.52031C2.98439 6.37688 2.32638 4.5281 2.56073 4.29376C2.79507 4.05941 3.3209 4.561 3.95871 4.29376C4.35468 4.12752 4.40028 3.52319 5.10389 2.59793V2.59793Z" fill="#5092FF"/>
<path d="M1.80455 12.1616L6.78005 11.0764C6.86605 11.0556 6.95263 11.032 7.03979 11.0054C4.98494 13.361 4.72751 15.9907 4.72751 15.9907H13.576C14.8113 15.9907 15.781 14.789 15.6655 13.5538C15.3204 9.90642 14.058 3.19239 9.41498 3.14679C8.48741 2.44029 7.41382 2.26944 6.76792 2.91475C4.79562 4.88763 2.94337 6.94132 1.69199 8.32892C1.30296 8.76067 0.972221 9.12777 0.713634 9.40829C-0.377281 10.591 -0.123312 11.5613 0.840619 12.0519C1.13499 12.202 1.48131 12.2308 1.80455 12.1616V12.1616Z" fill="#EFD5FF"/>
<path d="M15.7278 8.47848C15.7278 6.36764 14.387 6.04902 13.8704 6.06115C13.9841 6.51829 14.032 7.96592 13.3105 10.1016C12.589 12.2372 13.1847 14.9899 13.5824 16C15.1241 16 15.7284 15.8015 15.7284 14.6834V8.47848H15.7278Z" fill="#FF6DC6"/>
<path d="M14.2669 8.65851C14.8805 6.34969 13.1847 3.95084 11.8496 3.95084C12.3188 5.02097 12.6075 7.54047 11.8496 8.76702C10.9867 10.1644 10.8487 13.9798 11.2816 16H14.0233C13.0421 13.215 13.6539 10.9673 14.2669 8.65851Z" fill="#C790F1"/>
<path d="M7.0698 10.9673C11.5252 7.26976 9.18005 4.05935 6.24036 3.44636C10.3887 0.289057 11.3567 6.5725 10.6236 8.71277C9.37861 10.0478 7.0698 10.9673 7.0698 10.9673V10.9673Z" fill="#BCA4EB"/>
<path d="M11.6245 15.9907H7.80056C6.88281 12.0888 9.99163 9.49026 10.1994 6.58115C10.4303 3.27378 8.04068 2.66194 8.04068 2.66194C7.27877 2.85242 8.62366 3.38344 7.1287 3.38344L6.7362 2.5465L6.33966 1.89426C7.28627 1.63452 8.55728 1.41691 10.0101 2.12918C11.7994 3.00538 13.3308 5.29688 12.716 7.6484C12.1025 9.99358 10.6502 11.6842 11.6245 15.9907V15.9907Z" fill="#5092FF"/>
<path d="M11.6245 15.9907H10.8089C10.6172 15.4135 10.4579 14.4854 10.4793 13.4026C10.5116 11.7298 10.8729 10.8023 11.7243 8.61408L11.9944 7.91912C12.8314 5.75461 11.5852 3.5901 11.0201 2.86859L11.1154 2.88244C12.361 3.99876 13.1979 5.8054 12.7159 7.64842C12.5676 8.21465 12.3708 8.74279 12.1705 9.27844C11.5425 10.9627 10.8856 12.7243 11.6245 15.9913V15.9907ZM14.2669 8.65852C14.5728 7.50816 14.305 6.33528 13.7936 5.44811H13.7618C13.7907 5.61089 13.8282 5.78347 13.868 5.96471C14.0435 6.76703 14.2559 7.73673 13.8882 8.76704L13.8859 8.77281C13.4103 10.105 12.4637 12.7555 12.6975 14.2505C12.8216 15.0412 13.0571 15.6819 13.1979 16H14.0233C13.0501 13.2381 13.6435 11.0049 14.2519 8.71566L14.2669 8.65852Z" fill="#8D65C5"/>
<path d="M7.45773 3.88791C6.38413 4.03221 6.08167 3.48155 6.01472 2.47145C5.94834 1.46134 5.9645 1.16697 5.9645 1.16697C5.9645 0.970718 6.20116 0.872593 6.33968 1.01112C6.33968 1.01112 8.23291 2.50781 8.3143 3.04865C8.39568 3.59007 7.90448 3.82788 7.45773 3.88791V3.88791Z" fill="#EFD5FF"/>
<path d="M5.3924 5.61032C5.23931 5.61032 5.0925 5.67113 4.98425 5.77938C4.87601 5.88763 4.81519 6.03444 4.81519 6.18752V6.76473C4.81519 6.91781 4.87601 7.06463 4.98425 7.17287C5.0925 7.28112 5.23931 7.34193 5.3924 7.34193C5.54548 7.34193 5.6923 7.28112 5.80054 7.17287C5.90879 7.06463 5.9696 6.91781 5.9696 6.76473V6.18752C5.9696 6.03444 5.90879 5.88763 5.80054 5.77938C5.6923 5.67113 5.54548 5.61032 5.3924 5.61032ZM1.30002 10.4017C1.12686 10.5749 0.838261 10.5749 0.6651 10.4017L1.30002 9.76676C1.47319 9.9457 1.47319 10.2285 1.30002 10.4017ZM3.48012 11.7962L2.40421 12.0306C2.62593 11.9437 2.81093 11.7831 2.92805 11.5757C3.04517 11.3684 3.08726 11.127 3.04722 10.8923C3.0385 10.8532 3.03781 10.8128 3.04519 10.7734C3.05258 10.7341 3.06788 10.6966 3.09018 10.6634C3.11248 10.6301 3.14131 10.6017 3.17491 10.5799C3.20851 10.5582 3.24619 10.5434 3.28566 10.5367C3.32513 10.5299 3.36556 10.5312 3.4045 10.5405C3.44344 10.5499 3.48008 10.567 3.5122 10.5909C3.54431 10.6149 3.57123 10.6451 3.59131 10.6797C3.6114 10.7143 3.62423 10.7527 3.62904 10.7925C3.69022 11.1474 3.63077 11.4966 3.48012 11.7962Z" fill="#1C1C1C"/>
</svg>